<svg id="Layer_1" data-name="Layer 1" xmlns="http://www.w3.org/2000/svg" viewBox="0 0 1280 1400"><defs><style>.cls-1{fill:#fff;}</style></defs><path id="Path_211" data-name="Path 211" class="cls-1" d="M238.75,1221.62A174.55,174.55,0,1,1,413.3,1047.07h0A174.75,174.75,0,0,1,238.75,1221.62Zm0-321.69a147.14,147.14,0,1,0,147.14,147.14h0A147.3,147.3,0,0,0,238.75,899.93Z"/><path id="Path_212" data-name="Path 212" class="cls-1" d="M238.75,1128.38a81.32,81.32,0,1,1,81.31-81.32h0A81.41,81.41,0,0,1,238.75,1128.38Zm0-135.22a53.91,53.91,0,1,0,53.9,53.91h0a54,54,0,0,0-53.9-53.9Z"/><path id="Path_213" data-name="Path 213" class="cls-1" d="M797.65,1188.86H336.12v-27.42H797.66A12.32,12.32,0,0,0,810,1149.13c-.24-209.19-169.76-378.72-379-379H316.2A116.91,116.91,0,0,0,199.44,886.93H172A144.33,144.33,0,0,1,316.2,742.77H431c224.32.25,406.11,182,406.37,406.37A39.78,39.78,0,0,1,797.65,1188.86Z"/><rect id="Rectangle_401" data-name="Rectangle 401" class="cls-1" x="568.89" y="748.73" width="27.42" height="507.42" transform="translate(-551.5 1243.52) rotate(-71.84)"/><path id="Path_214" data-name="Path 214" class="cls-1" d="M1202.11,1186.54H884.36a13.71,13.71,0,0,1-11.62-21l51.8-82.73a13.69,13.69,0,0,1,11.61-6.43H1147.7a13.72,13.72,0,0,1,11.45,6.17l54.4,82.73a13.69,13.69,0,0,1-11.45,21.23Zm-292.95-27.42h267.57l-36.41-55.31H943.72Z"/><path id="Path_215" data-name="Path 215" class="cls-1" d="M1032,1095.86C843.09,746.42,684,455.64,614.33,329l.41,2.53-38.58-71.36A100.52,100.52,0,0,0,398.91,355l.39.72L504.77,550.82c2.07,4,47,93.2,15.52,158.85-14.95,31.19-44.06,51.45-86.52,60.21L428.24,743c33.6-6.93,56.25-22.13,67.31-45.16,25.2-52.48-13.29-130.76-15-134.2L375.2,368.77A127.94,127.94,0,0,1,598.55,243.91c.58,1.05,1.16,2.11,1.71,3.18h-.07c.94,1.38,1.71,2.74,2.35,3.89,1.56,2.77,3.86,6.9,6.88,12.32,6,10.8,14.82,26.78,26.19,47.43C661,356.8,695.26,419.34,732.18,486.86c71.31,130.44,185.41,339.71,323.91,595.94Z"/></svg>