<svg id="Layer_1" data-name="Layer 1" xmlns="http://www.w3.org/2000/svg" viewBox="0 0 1000 1400"><defs><style>.cls-1{fill:#fff;}</style></defs><path id="Path_338" data-name="Path 338" class="cls-1" d="M659.52,1256.87h-541a13.7,13.7,0,0,1-13.71-13.7h0c0-405.27,34.31-535.38,215.94-818.93a13.72,13.72,0,0,1,11.57-6.31H448.24a13.7,13.7,0,0,1,13.7,13.71h0c0,302.55,9.21,312.23,80.88,387.29,8.9,9.34,19,19.92,30,32a307.16,307.16,0,0,1,64.62,109.57c46.36,138,36.17,277.79,35.72,283.67A13.69,13.69,0,0,1,659.52,1256.87Zm-527.3-27.41H646.48c1.32-37.27,1.71-150.89-35-260.18a280,280,0,0,0-58.91-99.85c-10.83-11.89-20.8-22.34-29.61-31.57-78.49-82.24-88.17-102.22-88.46-392.52H339.76c-95.67,150-141.85,246.2-169.69,353-30.74,118-37.53,253-37.85,431.12Z"/><rect id="Rectangle_446" data-name="Rectangle 446" class="cls-1" x="434.51" y="341.05" width="27.42" height="90.55"/><rect id="Rectangle_447" data-name="Rectangle 447" class="cls-1" x="318.56" y="343.34" width="27.42" height="95.14"/><path id="Path_339" data-name="Path 339" class="cls-1" d="M594.84,355.9H208V342.19q0-3.19.13-6.38a149.91,149.91,0,0,1,58.71-112.74,155.13,155.13,0,0,1,128.37-28.73l199.67,44ZM236.11,328.48H567.43V260.36L389.27,221.1a127.78,127.78,0,0,0-105.74,23.68,122.76,122.76,0,0,0-47.42,83.71Z"/><path id="Path_340" data-name="Path 340" class="cls-1" d="M609.34,546.8c-45.61-24.86-71.74-69.15-75.56-128.1a258.31,258.31,0,0,1,7.76-80.34L567.88,346a234.32,234.32,0,0,0-6.69,71.71c3.39,49.38,24,84.72,61.28,105Z"/><path id="Path_341" data-name="Path 341" class="cls-1" d="M653.24,332.69H584.58V305.25h41.25V285.41H584.58V258h68.66Z"/><rect id="Rectangle_448" data-name="Rectangle 448" class="cls-1" x="146.86" y="823.66" width="400.13" height="27.42"/><path id="Path_342" data-name="Path 342" class="cls-1" d="M376.38,1110.6c-50.18-179-47.53-355-36.47-471.13a1264.76,1264.76,0,0,1,36.47-211.71l26.34,7.6c-1,3.29-93.8,333.13,0,667.8Z"/><g id="Group_626" data-name="Group 626"><path id="Path_343" data-name="Path 343" class="cls-1" d="M737,320.81a13.57,13.57,0,1,1-13.56,13.56h0A13.56,13.56,0,0,1,737,320.81Z"/><path id="Path_344" data-name="Path 344" class="cls-1" d="M737,236.58a13.57,13.57,0,1,1-13.56,13.57h0A13.57,13.57,0,0,1,737,236.58Z"/><path id="Path_345" data-name="Path 345" class="cls-1" d="M806.8,362.92a13.57,13.57,0,1,1-13.57,13.56h0A13.57,13.57,0,0,1,806.8,362.92Z"/><path id="Path_346" data-name="Path 346" class="cls-1" d="M806.8,277.73a13.57,13.57,0,1,1-13.57,13.57h0A13.58,13.58,0,0,1,806.8,277.73Z"/><path id="Path_347" data-name="Path 347" class="cls-1" d="M806.8,192.52a13.57,13.57,0,1,1-13.57,13.57h0A13.58,13.58,0,0,1,806.8,192.52Z"/><path id="Path_348" data-name="Path 348" class="cls-1" d="M881.64,414.26a13.57,13.57,0,1,1-13.57,13.57h0A13.58,13.58,0,0,1,881.64,414.26Z"/><path id="Path_349" data-name="Path 349" class="cls-1" d="M881.64,323.88a13.57,13.57,0,1,1-13.57,13.57h0A13.58,13.58,0,0,1,881.64,323.88Z"/><path id="Path_350" data-name="Path 350" class="cls-1" d="M881.64,233.5a13.57,13.57,0,1,1-13.57,13.57h0A13.58,13.58,0,0,1,881.64,233.5Z"/><path id="Path_351" data-name="Path 351" class="cls-1" d="M881.64,143.13a13.57,13.57,0,1,1-13.57,13.56h0A13.57,13.57,0,0,1,881.64,143.13Z"/></g></svg>