<svg id="Layer_1" data-name="Layer 1" xmlns="http://www.w3.org/2000/svg" viewBox="0 0 1280 1400"><defs><style>.cls-1{fill:#42b64a;}</style></defs><g id="Group_722" data-name="Group 722"><g id="Group_579" data-name="Group 579"><g id="Group_578" data-name="Group 578"><path id="Path_277" data-name="Path 277" class="cls-1" d="M310.94,1308.68l-23.46-14.17c36.52-60.45,74.06-94.25,110.38-126.93,40.11-36.1,81.59-73.44,123.87-149,79.93-142.81,147.53-273.78,97.55-307.48a12,12,0,0,0-11.42.3c-42.44,18.25-99.51,155.25-104.74,175.69A13.84,13.84,0,0,1,494.33,898l-7.75,2.93-6.23-5.52c-4.08-3.63-5-6.11-7.92-29.17-1.05-8.41-3-25.8-4.6-47.72-2.39-33.49-3.84-79,2.76-105.7,5.09-20.58,22.63-53.07,41.19-87.48s41.81-77.46,41.87-92.33c.07-12.66-5.34-24.65-12-26.69-7.6-2.36-24.37,6.49-46.66,39.15-98.6,144.66-99.7,179.89-101,220.69a311.73,311.73,0,0,1-2.47,34.53l-27.16-3.74a288.81,288.81,0,0,0,2.22-31.66c1.41-45.07,2.67-84,105.73-235.27,27.57-40.52,53.66-57.3,77.45-49.92,21.74,6.76,31.38,31.51,31.28,53-.09,20.27-17.13,53.27-45.16,105.22-16.9,31.39-34.46,63.84-38.71,81-6.11,24.73-4.15,72.95-1,110.41,22.44-51.29,60.49-123.31,97.76-142.09a39.77,39.77,0,0,1,39.21-.19l.75.46c70.69,46.36,5,177.47-88.27,344.05-44.48,79.49-87.68,118.37-129.45,156C379.76,1220.69,345.36,1251.71,310.94,1308.68Zm192.28-422.3a3.24,3.24,0,0,1-.07.52c0-.2.06-.38.08-.52Zm-26.68-5.66A12,12,0,0,0,476,883a18,18,0,0,1,.51-2.29Z"/><path id="Path_278" data-name="Path 278" class="cls-1" d="M299.25,794.29l-27.39-1.16c3.65-86.2,78.44-216.77,101.46-238.9,55.15-53,113.66-43.47,116.12-43l-4.63,27C482.89,537.88,437,531,392.3,574,370.93,594.56,302.43,719.28,299.25,794.29Z"/><path id="Path_279" data-name="Path 279" class="cls-1" d="M189.89,838a382.3,382.3,0,0,1,28.75-144.66C249.94,618.24,302,571.8,369.19,559.09L374.28,586c-137.5,26-159,207.26-157,250.72Z"/><path id="Path_280" data-name="Path 280" class="cls-1" d="M86.93,1185.14l-19.3-19.48.46-.45c49.31-48.83,70.09-96.34,61.79-141.23l-.21-1.7c-.08-1.32-.89-6.22-1.7-11a558.51,558.51,0,0,1-5.17-177.91c15.12-97.9,62.83-169.18,141.84-211.86l13,24.12c-71.06,38.38-114,102.94-127.77,191.91A532.88,532.88,0,0,0,155,1006.73c1,6.17,1.72,10.16,2,13,9.71,54.11-13.7,109.61-69.59,165Z"/></g><path id="Path_281" data-name="Path 281" class="cls-1" d="M488,1108.28a13.71,13.71,0,0,1-7.72-25c132.19-89.85,232.51-76.08,329.55-62.8,90.08,12.32,175.34,24,289.92-38.66-75.57-130.87-118.85-230.7-139.89-322.3A499.74,499.74,0,0,1,977,363.11,1121.4,1121.4,0,0,1,1033.16,235c5.87-11.72,11.12-22.18,15.65-32.17C838.66,281.14,632.57,307.74,494.12,316.11a1921.38,1921.38,0,0,1-236,.44C282,357.28,321.3,449,312.93,600.16a13.71,13.71,0,1,1-27.39-1.11c0-.14,0-.27,0-.41,11-197.28-64.38-288.22-65.14-289.11A13.72,13.72,0,0,1,232.29,287a1734.52,1734.52,0,0,0,260.8,1.72c142.7-8.68,358.24-37,574.75-122.51a13.71,13.71,0,0,1,18.1,16.9,441.28,441.28,0,0,1-28.28,64.22,1098.57,1098.57,0,0,0-55,125.2c-73,198.82-5.2,379.85,127.71,607.44a13.71,13.71,0,0,1-4.92,18.75h0c-128.82,74.92-225.68,61.67-319.36,48.86-96.14-13.16-187-25.58-310.45,58.31A13.69,13.69,0,0,1,488,1108.28Z"/><path id="Path_282" data-name="Path 282" class="cls-1" d="M902.52,822.69a13.69,13.69,0,0,1-12.94-9.19c-44.11-126.31-16.9-265.89,88.29-452.4a13.71,13.71,0,1,1,23.88,13.47c-52,92.25-83.92,171.17-97.5,241.24a353.84,353.84,0,0,0,11.21,188.66,13.72,13.72,0,0,1-13,18.23Z"/></g><g id="Group_582" data-name="Group 582"><g id="Group_580" data-name="Group 580"><path id="Path_283" data-name="Path 283" class="cls-1" d="M534,185.13a141,141,0,0,1-29.69-17.22,228.25,228.25,0,0,1-25.2-21.7,215,215,0,0,1-21.77-25.12,134.81,134.81,0,0,1-17.14-29.77A135.17,135.17,0,0,1,470,108.45a215.05,215.05,0,0,1,25.12,21.78,227.34,227.34,0,0,1,21.7,25.2A140.33,140.33,0,0,1,534,185.13Z"/></g><g id="Group_581" data-name="Group 581"><path id="Path_284" data-name="Path 284" class="cls-1" d="M440.15,185.13a140,140,0,0,1,17.21-29.69,227.43,227.43,0,0,1,21.71-25.2,213.43,213.43,0,0,1,25.12-21.78A135.1,135.1,0,0,1,534,91.33a135.1,135.1,0,0,1-17.13,29.76A214.33,214.33,0,0,1,495,146.22a227.34,227.34,0,0,1-25.2,21.7A140.5,140.5,0,0,1,440.15,185.13Z"/></g></g><g id="Group_585" data-name="Group 585"><g id="Group_583" data-name="Group 583"><path id="Path_285" data-name="Path 285" class="cls-1" d="M768.48,570.87a139.8,139.8,0,0,1-29.68-17.22A227.34,227.34,0,0,1,713.6,532a215.05,215.05,0,0,1-21.78-25.12,135.17,135.17,0,0,1-17.13-29.77,134.74,134.74,0,0,1,29.76,17.14A213.34,213.34,0,0,1,729.57,516a228.25,228.25,0,0,1,21.7,25.2A140.33,140.33,0,0,1,768.48,570.87Z"/></g><g id="Group_584" data-name="Group 584"><path id="Path_286" data-name="Path 286" class="cls-1" d="M674.68,570.87a140,140,0,0,1,17.21-29.69,227.34,227.34,0,0,1,21.7-25.2,215.05,215.05,0,0,1,25.12-21.78,135.1,135.1,0,0,1,29.76-17.13,134.38,134.38,0,0,1-17.13,29.77A215.92,215.92,0,0,1,729.57,532a229.43,229.43,0,0,1-25.21,21.7A140.18,140.18,0,0,1,674.68,570.87Z"/></g></g><g id="Group_588" data-name="Group 588"><g id="Group_586" data-name="Group 586"><path id="Path_287" data-name="Path 287" class="cls-1" d="M1212.37,656.16a139.87,139.87,0,0,1-29.69-17.22,228.25,228.25,0,0,1-25.2-21.7,215.05,215.05,0,0,1-21.78-25.12,135.17,135.17,0,0,1-17.13-29.77,134.81,134.81,0,0,1,29.77,17.14,215.92,215.92,0,0,1,25.12,21.77,229.33,229.33,0,0,1,21.7,25.2A140.33,140.33,0,0,1,1212.37,656.16Z"/></g><g id="Group_587" data-name="Group 587"><path id="Path_288" data-name="Path 288" class="cls-1" d="M1118.56,656.16a140.12,140.12,0,0,1,17.22-29.69,229.24,229.24,0,0,1,21.69-25.2,215.92,215.92,0,0,1,25.12-21.77,134.81,134.81,0,0,1,29.77-17.14,134.81,134.81,0,0,1-17.14,29.77,215,215,0,0,1-21.77,25.12,228.25,228.25,0,0,1-25.2,21.7A140.5,140.5,0,0,1,1118.56,656.16Z"/></g></g></g></svg>