<svg id="Layer_1" data-name="Layer 1" xmlns="http://www.w3.org/2000/svg" xmlns:xlink="http://www.w3.org/1999/xlink" viewBox="0 0 1440 1440"><defs><style>.cls-1{fill:url(#linear-gradient);}.cls-2{fill:#ffffff;}.cls-3{fill:#006db7;}.cls-4{fill:#2aa2db;}.cls-5{fill:#2b9dd7;}.cls-6{fill:#0070b9;}.cls-7{fill:#0078bf;}.cls-8{fill:#007ec4;}.cls-9{fill:#0c66b3;}.cls-10{fill:#2ca1db;}.cls-11{fill:#055aaa;}.cls-12{fill:#21409a;}.cls-13{fill:#065ead;}.cls-14{fill:#0559aa;}.cls-15{fill:#2ba4dc;}.cls-16{fill:#0078c0;}.cls-17{fill:url(#linear-gradient-2);}.cls-18{fill:#2aa4dd;}.cls-19{fill:#006fb9;}.cls-20{fill:#1464b0;}.cls-21{fill:#0754a6;}.cls-22{fill:#0071ba;}.cls-23{fill:#0558a8;}.cls-24{fill:#20419b;}.cls-25{fill:#19499f;}</style><linearGradient id="linear-gradient" x1="-3589.13" y1="1135.02" x2="-3587.12" y2="1135.02" gradientTransform="matrix(238.77, -80.23, -80.23, -238.77, 948985.2, -16030.37)" gradientUnits="userSpaceOnUse"><stop offset="0" stop-color="#3b75ba"/><stop offset="0.59" stop-color="#3091cf"/><stop offset="1" stop-color="#28a7df"/></linearGradient><linearGradient id="linear-gradient-2" x1="-3584.38" y1="1144.58" x2="-3582.37" y2="1144.58" gradientTransform="matrix(165.34, 54.3, 54.3, -165.34, 530589.16, 384655.3)" gradientUnits="userSpaceOnUse"><stop offset="0" stop-color="#28a7df"/><stop offset="0.59" stop-color="#338bca"/><stop offset="1" stop-color="#3b75ba"/></linearGradient></defs><path class="cls-1" d="M792.07,1078.67c10.19-2,75.88-2.55,156.35-25.46s154.31-77.42,196.09-110.52,106.94-93.2,131.89-124.78,82.51-102.37,82.51-102.37-94.22-28-204.73-14.26-179.79,54.5-239.88,120.2-122.4,165-122.23,257.19"/><path class="cls-2" d="M780.74,1073.56S923,1048.88,1050.54,893s180.29-302.52,180.29-302.52-148.22,3.06-265.09,83.27S798.18,868.3,780.74,1073.56Z"/><path class="cls-3" d="M1154.18,701.28C1043.66,715,974.39,755.78,914.3,821.48c-58.41,63.85-118.73,159.44-121.92,249.39,36.36-9.52,152.26-48.48,258.16-177.84a1225.08,1225.08,0,0,0,129.77-194.2C1171.71,699.43,1163,700.18,1154.18,701.28Z"/><path class="cls-4" d="M811.93,377.37S683.08,540.86,677.48,662.07s-11.71,255.15,114.59,416.6c0,0,73.85-121.72,79.45-296.92S829.75,427.79,811.93,377.37Z"/><path class="cls-5" d="M804.3,554.1C862.35,448.17,980,361.33,980,361.33s6.1,135.22,0,240.64-40.24,243.44-86.07,343.77-101.86,132.93-101.86,132.93-112.2-41.82-130.88-166.54C639.22,765.58,746.23,660,804.3,554.1Z"/><path class="cls-6" d="M965.74,673.78c-116.88,80.21-167.55,194.51-185,399.77h0c.11,0,10.48-1.85,28-7.5,20.06-17.23,54.8-53.85,85.16-120.31C930.55,865.59,959.64,761.41,973,669,970.57,670.57,968.13,672.13,965.74,673.78Z"/><path class="cls-7" d="M942.83,608.85S797,702.24,747.25,814.34s44.82,264.33,44.82,264.33,78.18-58.06,123.25-234.91S942.83,608.85,942.83,608.85Z"/><path class="cls-8" d="M843.18,495.58A448.06,448.06,0,0,0,804.3,554.1C765.74,624.45,705.61,694.66,676,776.8c4.47,90.63,28.25,189.6,116.08,301.87,0,0,73.85-121.72,79.45-296.92C874.82,678.62,859.75,574.28,843.18,495.58Z"/><path class="cls-9" d="M914.3,821.48c-58.41,63.85-118.73,159.44-121.92,249.38l.67-.18c1.66-.44,3.56-1,5.54-1.54l2.73-.8c2.32-.68,4.79-1.44,7.45-2.29,20.06-17.24,54.8-53.85,85.16-120.31,21.39-46.83,40.09-101.9,54.71-158A429,429,0,0,0,914.3,821.48Z"/><path class="cls-10" d="M628.84,377.37s-40.49,139.8-55,282.66S570,927.41,648.7,1074.85c0,0,81.75-81,116.89-226.13s-20.76-280-57-350.64C670.09,423.21,628.84,377.37,628.84,377.37Z"/><path class="cls-11" d="M944,689.73c-99.18,77.56-144.72,186.89-162,371,2.37,4.51,4.49,8.33,6.12,11.21,4-1,9.51-2.45,16.28-4.53,23.8-24.09,76.81-89.81,110.92-223.65C932.55,776.15,940.59,726,944,689.73Z"/><path class="cls-12" d="M915.32,843.76c2.79-11,5.26-21.32,7.6-31.39-2.89,3-5.77,6-8.62,9.11-58.4,63.84-118.72,159.41-121.92,249.35l2-.52,1.8-.5c2.22-.62,4.67-1.33,7.31-2.14l.93-.28C828.23,1043.28,881.22,977.56,915.32,843.76Z"/><path class="cls-13" d="M824.66,619.8c-69.26,87.6-112.45,162-112.45,162-7.5,13.48-15.16,27.74-23,43.24-73.8,145.53-43.29,240.89-40.5,249.81,0,0,123-37.43,176-178S824.66,619.8,824.66,619.8Z"/><path class="cls-14" d="M469.08,669.43c1,8.21,2,16.5,3.16,25,27.49,205.5,121.46,346.06,176.46,380.44,0,0-22.15-236.82-89.37-324.68C533.2,716,500.64,689.6,469.08,669.43Z"/><path class="cls-15" d="M648.7,1074.85s-141.83-125-174.43-365.42-8.14-348.1-8.14-348.1,101.09,77,192.13,217.72S711.1,955.42,648.7,1074.85Z"/><path class="cls-16" d="M502.8,608.85s-22.42,263.29,145.9,466C648.7,1074.85,771.7,773.09,502.8,608.85Z"/><path class="cls-17" d="M81.09,716.56S181.18,851,313.33,954.91s265.86,128.34,335.37,119.94c0,0-55.77-249.81-197.85-320.09S186.52,688.3,81.09,716.56Z"/><path class="cls-18" d="M211.73,590.51s53.48,129.11,116.88,220,129.87,161.18,183.35,194,136.74,70.28,136.74,70.28S626.55,838,559.33,750.17,382.09,624.89,356.88,616.49,283.54,595.09,211.73,590.51Z"/><path class="cls-19" d="M469.08,669.43c1,8.21,2,16.5,3.16,25,27.49,205.5,121.46,346.06,176.46,380.44,0,0-22.15-236.82-89.37-324.68C533.2,716,500.64,689.6,469.08,669.43Z"/><path class="cls-20" d="M450.85,754.76c-66.88-33.09-129.32-49.6-187.71-55C282,736.07,304.56,776,328.61,810.53c63.41,90.9,129.87,161.18,183.35,194s136.74,70.28,136.74,70.28S592.93,825,450.85,754.76Z"/><path class="cls-21" d="M488,778.46c38,159.38,113.62,266.94,160.74,296.39C648.7,1074.85,602.74,869,488,778.46Z"/><path class="cls-22" d="M658.26,579.05a997.05,997.05,0,0,0-58.6-81.13c-9.93,47.6-20,104.6-25.82,162.11C559.33,802.89,570,927.4,648.7,1074.85,711.1,955.42,749.28,719.75,658.26,579.05Z"/><path class="cls-23" d="M503.92,694.3c7.1,94.28,36.34,249.94,144.78,380.55,0,0-22.15-236.82-89.37-324.68A323.64,323.64,0,0,0,503.92,694.3Z"/><path class="cls-24" d="M648.7,1074.85s-36.92-165.09-127.08-264.6C540.71,893,577.64,989.27,648.7,1074.85Z"/><path class="cls-19" d="M772.15,690.15c-37.82,53.61-59.94,91.65-59.94,91.65-7.5,13.48-15.16,27.74-23,43.24-73.8,145.53-43.29,240.89-40.5,249.81,0,0,81.75-81,116.89-226.13C779,793.36,779.1,739.53,772.15,690.15Z"/><path class="cls-25" d="M712.21,781.8c-7.5,13.48-15.16,27.74-23,43.24-73.8,145.53-43.29,240.89-40.5,249.81C685.92,1003.59,714.52,891,712.21,781.8Z"/></svg>