<svg id="Layer_1" data-name="Layer 1" xmlns="http://www.w3.org/2000/svg" xmlns:xlink="http://www.w3.org/1999/xlink" viewBox="0 0 2136.01 1179.93"><defs><style>.cls-1{fill:url(#linear-gradient);}.cls-2{fill:#ffffff;}.cls-3{fill:#006db7;}.cls-4{fill:#2aa2db;}.cls-5{fill:#2b9dd7;}.cls-6{fill:#0070b9;}.cls-7{fill:#0078bf;}.cls-8{fill:#007ec4;}.cls-9{fill:#0c66b3;}.cls-10{fill:#2ca1db;}.cls-11{fill:#055aaa;}.cls-12{fill:#21409a;}.cls-13{fill:#065ead;}.cls-14{fill:#0559aa;}.cls-15{fill:#2ba4dc;}.cls-16{fill:#0078c0;}.cls-17{fill:url(#linear-gradient-2);}.cls-18{fill:#2aa4dd;}.cls-19{fill:#006fb9;}.cls-20{fill:#1464b0;}.cls-21{fill:#0754a6;}.cls-22{fill:#0071ba;}.cls-23{fill:#0558a8;}.cls-24{fill:#20419b;}.cls-25{fill:#19499f;}.cls-26{fill:url(#linear-gradient-3);}.cls-27{fill:url(#linear-gradient-4);}.cls-28{fill:url(#linear-gradient-5);}.cls-29{fill:url(#linear-gradient-6);}.cls-30{fill:url(#linear-gradient-7);}.cls-31{fill:url(#linear-gradient-8);}.cls-32{fill:url(#linear-gradient-9);}.cls-33{fill:url(#linear-gradient-10);}.cls-34{fill:url(#linear-gradient-11);}.cls-35{fill:#055ead;}</style><linearGradient id="linear-gradient" x1="-1407.45" y1="1008.14" x2="-1406.45" y2="1008.14" gradientTransform="matrix(238.77, -80.23, -80.23, -238.77, 418775.01, 128171.91)" gradientUnits="userSpaceOnUse"><stop offset="0" stop-color="#3b75ba"/><stop offset="0.59" stop-color="#3091cf"/><stop offset="1" stop-color="#28a7df"/></linearGradient><linearGradient id="linear-gradient-2" x1="-1403.74" y1="1014.83" x2="-1402.74" y2="1014.83" gradientTransform="matrix(165.34, 54.3, 54.3, -165.34, 178404.13, 244323.15)" gradientUnits="userSpaceOnUse"><stop offset="0" stop-color="#28a7df"/><stop offset="0.59" stop-color="#338bca"/><stop offset="1" stop-color="#3b75ba"/></linearGradient><linearGradient id="linear-gradient-3" x1="-1409.62" y1="1010.91" x2="-1408.62" y2="1010.91" gradientTransform="matrix(360.69, 0, 0, -360.69, 508536.27, 365004.98)" gradientUnits="userSpaceOnUse"><stop offset="0" stop-color="#29a6de"/><stop offset="0.79" stop-color="#397bbf"/><stop offset="1" stop-color="#3e6fb6"/></linearGradient><linearGradient id="linear-gradient-4" x1="-1409.47" y1="1010.91" x2="-1408.47" y2="1010.91" gradientTransform="matrix(352.03, 0, 0, -352.03, 497214.41, 356178.58)" xlink:href="#linear-gradient-3"/><linearGradient id="linear-gradient-5" x1="-1409.13" y1="1010.91" x2="-1408.13" y2="1010.91" gradientTransform="matrix(333.53, 0, 0, -333.53, 470460.08, 337482.4)" xlink:href="#linear-gradient-3"/><linearGradient id="linear-gradient-6" x1="-1405.54" y1="1010.91" x2="-1404.54" y2="1010.91" gradientTransform="matrix(215.63, 0, 0, -215.63, 303904.01, 218295.66)" xlink:href="#linear-gradient-3"/><linearGradient id="linear-gradient-7" x1="-1409.61" y1="1010.91" x2="-1408.61" y2="1010.91" gradientTransform="matrix(359.86, 0, 0, -359.86, 507460.17, 364583.25)" gradientUnits="userSpaceOnUse"><stop offset="0" stop-color="#3cb64b"/><stop offset="0.61" stop-color="#76c34a"/><stop offset="1" stop-color="#9ecc4a"/></linearGradient><linearGradient id="linear-gradient-8" x1="-1409.47" y1="1010.91" x2="-1408.47" y2="1010.91" gradientTransform="matrix(351.95, 0, 0, -351.95, 496861.01, 356514.47)" xlink:href="#linear-gradient-7"/><linearGradient id="linear-gradient-9" x1="-1409.47" y1="1010.91" x2="-1408.47" y2="1010.91" gradientTransform="matrix(351.99, 0, 0, -351.99, 497284.15, 356559.55)" xlink:href="#linear-gradient-7"/><linearGradient id="linear-gradient-10" x1="-1409.12" y1="1010.91" x2="-1408.12" y2="1010.91" gradientTransform="matrix(333.09, 0, 0, -333.09, 470896.38, 337449.51)" xlink:href="#linear-gradient-7"/><linearGradient id="linear-gradient-11" x1="-1405.57" y1="1010.91" x2="-1404.57" y2="1010.91" gradientTransform="matrix(216.2, 0, 0, -216.2, 304472.09, 219289.39)" xlink:href="#linear-gradient-7"/></defs><path class="cls-1" d="M1758.73,459c5.07-1,37.79-1.26,77.86-12.68s76.85-38.55,97.65-55,53.26-46.42,65.68-62.14,41.09-51,41.09-51-46.92-13.95-102-7.1S1849.52,298.24,1819.6,331s-61,82.18-60.87,128.08"/><path class="cls-2" d="M1753.09,456.49s70.82-12.29,134.35-89.9,89.78-150.65,89.78-150.65-73.8,1.52-132,41.47S1761.77,354.27,1753.09,456.49Z"/><path class="cls-3" d="M1939.05,271.1c-55,6.85-89.53,27.14-119.45,59.85-29.09,31.8-59.13,79.4-60.72,124.2,18.11-4.74,75.83-24.14,128.56-88.56a609.54,609.54,0,0,0,64.63-96.71C1947.79,270.18,1943.46,270.55,1939.05,271.1Z"/><path class="cls-4" d="M1768.62,109.8s-64.16,81.41-67,141.77-5.83,127.06,57.07,207.46c0,0,36.77-60.61,39.57-147.86S1777.49,134.91,1768.62,109.8Z"/><path class="cls-5" d="M1764.82,197.8c28.91-52.75,87.5-96,87.5-96s3,67.33,0,119.83-20,121.23-42.87,171.2S1758.73,459,1758.73,459s-55.87-20.82-65.18-82.93C1682.61,303.12,1735.9,250.56,1764.82,197.8Z"/><path class="cls-6" d="M1845.21,257.41c-58.2,39.94-83.43,96.86-92.12,199.07h0a117.12,117.12,0,0,0,14-3.74c10-8.58,27.3-26.82,42.41-59.91,18.24-39.92,32.72-91.8,39.38-137.82C1847.62,255.8,1846.41,256.58,1845.21,257.41Z"/><path class="cls-7" d="M1833.8,225.07s-72.61,46.51-97.39,102.33S1758.73,459,1758.73,459s38.93-28.91,61.38-117S1833.8,225.07,1833.8,225.07Z"/><path class="cls-8" d="M1784.18,168.66a223.54,223.54,0,0,0-19.36,29.14c-19.2,35-49.15,70-63.9,110.9,2.23,45.14,14.07,94.42,57.81,150.33,0,0,36.77-60.61,39.57-147.86C1799.94,259.81,1792.43,207.85,1784.18,168.66Z"/><path class="cls-9" d="M1819.6,331c-29.09,31.8-59.13,79.4-60.72,124.19l.33-.08,2.77-.77,1.36-.4c1.15-.34,2.38-.72,3.7-1.14,10-8.59,27.3-26.82,42.41-59.91,10.66-23.32,20-50.75,27.25-78.68A214.34,214.34,0,0,0,1819.6,331Z"/><path class="cls-10" d="M1677.44,109.8s-20.16,69.61-27.39,140.76-1.9,133.15,37.28,206.57c0,0,40.71-40.33,58.21-112.61s-10.34-139.44-28.4-174.61C1698,132.62,1677.44,109.8,1677.44,109.8Z"/><path class="cls-11" d="M1834.38,265.35C1785,304,1762.31,358.42,1753.72,450.1c1.18,2.25,2.23,4.15,3,5.58,2-.48,4.74-1.22,8.11-2.25,11.85-12,38.25-44.73,55.24-111.38C1828.69,308.38,1832.69,283.42,1834.38,265.35Z"/><path class="cls-12" d="M1820.11,342.05c1.39-5.46,2.62-10.62,3.78-15.63-1.44,1.49-2.87,3-4.29,4.53-29.08,31.8-59.12,79.39-60.72,124.18l1-.26.9-.25c1.1-.31,2.32-.66,3.64-1.06l.46-.14C1776.74,441.41,1803.12,408.68,1820.11,342.05Z"/><path class="cls-13" d="M1775,230.52c-34.49,43.62-56,80.68-56,80.68-3.73,6.71-7.55,13.81-11.46,21.53-36.75,72.47-21.56,120-20.17,124.4,0,0,61.26-18.64,87.63-88.64S1775,230.52,1775,230.52Z"/><path class="cls-14" d="M1597.88,255.24c.5,4.08,1,8.21,1.58,12.44C1613.15,370,1659.94,440,1687.33,457.13c0,0-11-117.93-44.5-161.68C1629.82,278.45,1613.6,265.28,1597.88,255.24Z"/><path class="cls-15" d="M1687.33,457.13s-70.63-62.26-86.86-182-4.06-173.35-4.06-173.35,50.35,38.35,95.68,108.42S1718.41,397.66,1687.33,457.13Z"/><path class="cls-16" d="M1614.67,225.07s-11.16,131.11,72.66,232.06C1687.33,457.13,1748.59,306.86,1614.67,225.07Z"/><path class="cls-17" d="M1404.67,278.71s49.84,67,115.65,118.69,132.4,63.91,167,59.73c0,0-27.77-124.4-98.53-159.4S1457.17,264.63,1404.67,278.71Z"/><path class="cls-18" d="M1469.73,215.94s26.63,64.29,58.2,109.56,64.68,80.27,91.31,96.63,68.09,35,68.09,35-11-117.93-44.5-161.68-88.27-62.39-100.82-66.58S1505.49,218.22,1469.73,215.94Z"/><path class="cls-19" d="M1597.88,255.24c.5,4.08,1,8.21,1.58,12.44C1613.15,370,1659.94,440,1687.33,457.13c0,0-11-117.93-44.5-161.68C1629.82,278.45,1613.6,265.28,1597.88,255.24Z"/><path class="cls-20" d="M1588.8,297.73c-33.3-16.48-64.39-24.7-93.47-27.4,9.37,18.1,20.63,38,32.6,55.17,31.58,45.27,64.68,80.27,91.31,96.63s68.09,35,68.09,35S1659.56,332.73,1588.8,297.73Z"/><path class="cls-21" d="M1607.29,309.53c18.94,79.37,56.58,132.94,80,147.6C1687.33,457.13,1664.45,354.63,1607.29,309.53Z"/><path class="cls-22" d="M1692.09,210.23a493.49,493.49,0,0,0-29.18-40.4,799.87,799.87,0,0,0-12.86,80.73c-7.22,71.14-1.9,133.15,37.28,206.57C1718.41,397.66,1737.42,280.29,1692.09,210.23Z"/><path class="cls-23" d="M1615.23,267.62c3.54,46.95,18.1,124.47,72.1,189.51,0,0-11-117.93-44.5-161.68A161.31,161.31,0,0,0,1615.23,267.62Z"/><path class="cls-24" d="M1687.33,457.13s-18.38-82.21-63.28-131.77C1633.56,366.58,1652,414.51,1687.33,457.13Z"/><path class="cls-19" d="M1748.81,265.56C1730,292.25,1719,311.2,1719,311.2c-3.73,6.71-7.55,13.81-11.46,21.53-36.75,72.47-21.56,120-20.17,124.4,0,0,40.71-40.33,58.21-112.61C1752.21,317,1752.27,290.15,1748.81,265.56Z"/><path class="cls-25" d="M1719,311.2c-3.73,6.71-7.55,13.81-11.46,21.53-36.75,72.47-21.56,120-20.17,124.4C1705.87,421.65,1720.11,365.55,1719,311.2Z"/><path class="cls-26" d="M166.1,141.75a237.39,237.39,0,0,1,138.13-29.58c25,3,49.66,9.84,72,21.42,15.28,8.16,29.4,19,40,32.77,23.93,31.75,36.28,70.92,40,110.17a350.09,350.09,0,0,1-1.63,77.65c-5,35.48-17.19,70.53-39.08,99.21-21,28-52.33,48.81-87.3,53.89-26.41,3.66-54,2.07-79.14-7.42-23.2-8.54-41.71-26.48-54.29-47.42-.36,47.81,0,95.63-.16,143.43,0,23.4-20,44.46-43.05,46.8-18.18.32-36.36.05-54.55.14q0-181.47,0-363c-.43-8.64,1.18-17.18,1.5-25.78,3.4-32.18,13.37-65.26,36.14-89.19C143.73,155.39,154.7,148,166.1,141.75Zm101.09,54.5c-21.48,1.3-41.57,13.44-53.3,31.38-15.95,23.69-18.23,53.27-19.22,81,.16,24.49,2.13,49.87,13.23,72.14,8.81,17,22.74,32.35,41.17,38.83,22.05,7.76,48,6.9,68.07-5.91,18.11-11.8,29.46-31.61,35.34-52,7.42-26.55,7.53-54.69,4.13-81.9C353.25,256,345,231.5,327.15,214.6,311.3,199.68,288.46,194.06,267.19,196.25Z"/><path class="cls-27" d="M1112.18,140.21c24-17.24,53.26-26.09,82.54-28.29,27.28-1.8,55.09-.3,81.45,7.41,29.2,8.3,56.38,24.92,75.51,48.66,27.5,34.5,38.82,79.08,41.07,122.44.2,15.36,1.73,30.78-.29,46.08-83,.31-166.06.07-249.08.18.46,18.67,3.57,37.88,12.87,54.33,8.54,14.36,21.58,26.68,38,31.21,22.07,6.22,46.85,5,67.37-5.74,8-3.52,14.19-10.17,19.07-17.23,7.56-9.71,19.67-14.91,31.82-15.08q37.53-.14,75.08,0c-6,23.45-16.3,46-31.51,65-11.87,14.91-27,26.93-43.36,36.62-23.06,13.32-49.4,20.31-75.84,22.52-28.45,2-57.61.65-84.79-8.65-29.13-9.52-54.65-28.75-72.79-53.33-18-23.82-28.3-52.7-33.42-81.92-4.68-25.35-4.87-51.2-4-76.89,1.8-26.75,6.48-53.6,16.77-78.48C1069.72,181.76,1088.05,157.21,1112.18,140.21Zm97,54.56c-18.11,1.14-35.83,9.49-47.53,23.46-12.86,14.78-17.55,34.8-18.39,54,48.9.2,97.82,0,146.74.09-1.53-21.87-6.76-45.64-23.61-61C1251.23,197,1229.17,193.22,1209.14,194.77Z"/><path class="cls-28" d="M475,119.66c33.56,0,67.12-.09,100.68.08q-.18,123.2,0,246.39c.19,16.12,4.37,33.25,16.23,44.84,11.48,10.51,26.37,17.51,41.94,18.76a75.4,75.4,0,0,0,59.39-19.44c10.89-10.69,15.53-26.23,16-41.15q0-92.22,0-184.43c.15-11.52-1.12-23.49,3.37-34.42,6.41-17.32,23.47-29.84,42-30.52,18-.06,35.92-.12,53.9,0-.22,46.32,0,92.65-.1,139-.34,36.78.79,73.59-.8,110.35-2,23.68-6.16,47.67-16.88,69.12-7.94,16.22-20.23,30.54-36,39.62-44,26.14-97.47,37.19-148,27.74a224.77,224.77,0,0,1-85-33.68c-20.41-14.17-32.64-37.23-39-60.76-6.58-24.5-8.17-50.07-7.82-75.34Z"/><path class="cls-29" d="M954.25,128.72c27.86-7.26,56.83-9.84,85.58-8.86-.29,34,0,67.94-.12,101.9-24.94.6-51-2.75-74.71,7a59.21,59.21,0,0,0-34.26,36.56c-4.67,12.88-5.76,26.72-5.92,40.31.12,65.42-.14,130.87.12,196.29-33.56.38-67.14.06-100.71.17q0-96.76,0-193.53c1-27.36,4.31-55.06,14.37-80.73,10.09-25.42,25.63-49.22,47.26-66.29C905.79,145.67,929.56,134.9,954.25,128.72Z"/><path class="cls-30" d="M348.08,527.78c43.9-5.17,89.45.89,129.6,19.79,20.68,9.84,41.49,21.45,55.83,39.82,21.26,26.65,29.52,61.3,31.23,94.75,1.71,20.06.73,40.22,1,60.34q0,77.79,0,155.58c.33,11.13-1,22.21-1.45,33.32-2.84,30.49-11.13,61.71-30.63,86-14.81,18.95-36.66,30.4-58.08,40.28-31,14-65,20.15-98.84,20.5-28.57-1-57.83-4.77-83.61-17.93-22.45-10.78-41.36-28.31-54.68-49.28-11.12-17.35-18.59-36.84-23.7-56.73q52.38,0,104.75,0C330,972.51,348.94,985,369.17,990.23c18.46,4.88,39,2,55-8.4a93.41,93.41,0,0,0,26.55-26.19c10.63-16.65,14.65-36.52,16.57-55.9.27-9.83.12-19.64.06-29.46-13.17,19.74-31.58,36.65-54.14,44.85-31.7,11.66-67.58,10.67-99.05-1.32-20.92-7.8-39.69-20.86-55-37-18-19.08-32.58-41.66-40.76-66.66-9.43-27.53-12.06-56.85-12.51-85.77.69-29.31,3.59-58.88,12.8-86.87,9.25-28.45,24-55.92,46.59-76C288.23,541.4,318.2,531.2,348.08,527.78ZM370,612c-12.9,1.91-25.57,7-35.21,15.92-9.49,8.51-14.91,20.39-19.33,32.11a185.53,185.53,0,0,0-11.16,53.65c0,16.66-.91,33.44,1.71,50,3.13,22.36,9.84,46.11,27.3,61.6,14.62,13.06,35.2,15.83,54.07,15.53,20.24.53,40.83-7.68,54.15-23.14,17.39-18.57,22.19-44.66,25.31-69,3-34.62,0-71.5-18.39-101.89-6.77-11.9-16-22.92-28.51-29C404.53,610,386.65,609.75,370,612Z"/><path class="cls-31" d="M952.45,526.8c38.79-2.68,79.38,1.65,114.11,20.29,22.22,11.89,41.45,29.47,54.4,51.18,17.31,27.91,26,60.38,29.18,92.85,1.78,17.6,1.69,35.32,1.54,53-.11,2.54-.62,5-1,7.54-83,.11-166.09-.23-249.13.17,1,23.43,5.54,48.6,22.07,66.41,13.09,16.14,34.61,22.84,54.82,22.48a84.18,84.18,0,0,0,48.45-13.32c8.1-6.09,12.45-15.81,21-21.39,7.4-5.55,16.87-6.76,25.85-6.93,24.14-.09,48.29.08,72.43-.16-5.76,21.65-14.72,42.67-28.21,60.66-23.69,31.74-60.17,52.87-98.85,60.22a233.33,233.33,0,0,1-83,1.16c-26.27-4.41-51.67-15.16-72.29-32.17a164,164,0,0,1-48.71-69.22c-14.45-38.26-16.73-79.85-14.75-120.32,2.21-28.89,7.81-58,20.57-84.17,12.13-25.73,31.17-48.41,55.23-63.75C898.89,536.55,925.66,529.1,952.45,526.8ZM913.13,642.69c-7.92,13.18-10.61,28.68-11.61,43.81,48.83.21,97.68,0,146.52.06-1.15-24.26-8.56-51.2-29.72-65.58-16.33-11.08-37.1-13.09-56.24-10.81C942,613,923.31,625,913.13,642.69Z"/><path class="cls-32" d="M1214.61,567.54c31.56-30,76.3-42.67,119.14-41.32,40.34-.39,82.17,9.86,114.14,35.38,27.24,21.16,44.34,52.94,53.51,85.71,9.4,33.82,10.87,69.31,8.89,104.18-83.07.39-166.15,0-249.22.16.42,23.74,5.6,49.18,22.29,67.06,10.09,12,25.13,19,40.54,21.06,16.35,2.21,33.54,1.06,48.9-5.35,6.24-3,12.94-5.61,17.67-10.89,5.46-4.68,8.3-11.71,14.39-15.76,9.8-8.75,23.71-8.91,36.1-8.71q32.16,0,64.33-.06c-7,28.1-20.54,54.92-40.92,75.67A164.23,164.23,0,0,1,1386.65,918a231.5,231.5,0,0,1-92.31,2.81c-26.42-4.66-51.94-15.66-72.46-33.09a162.68,162.68,0,0,1-39.45-49.95c-19-37.67-24-80.71-23.3-122.39.5-25.08,3.53-50.25,11-74.27C1178.51,613.39,1193.4,587.41,1214.61,567.54Zm65.78,64.22c-13.48,14.78-18.82,35.23-19.35,54.83q73.38,0,146.76-.05c-2.08-19.07-5.72-39.17-18.1-54.51-12.94-16.14-34.37-23-54.53-22.61C1314.87,608.6,1294,616.38,1280.39,631.76Z"/><path class="cls-33" d="M1598.12,550.28c27.16-14.12,57.39-22,87.87-24a214.87,214.87,0,0,1,105.74,24c10.36,5.53,20.81,11.27,29.38,19.45,16.32,15.09,26.19,35.86,31.75,57.1,5.26,20,7.24,40.74,7.32,61.39q0,114.29,0,228.59c-17.75,0-35.48,0-53.21-.06a45.74,45.74,0,0,1-45.55-44.13V674.43c-.11-16.52-3.25-34.42-15.16-46.72-16.55-16.8-41.59-24.07-64.69-20.39-14.83,2.47-29.16,9.32-39.62,20.22-10.62,11.38-14,27.38-14.62,42.48q0,123.33,0,246.67H1527.1q0-118.86,0-237.7c1.13-23.27,4.26-46.77,12.84-68.57,5.36-13.35,12.72-26.09,23-36.27C1572.81,563.79,1585.56,556.84,1598.12,550.28Z"/><path class="cls-34" d="M738.05,538.27c20-3.47,40.27-3.73,60.48-3.82V636.67c-22.34.64-45.25-2.21-67,4.2-13.73,3.86-26.68,11.86-34.66,23.87-8.88,13-12.37,28.94-13.2,44.45q-.09,103.75,0,207.51H582.38V783.29c.29-22.63-.71-45.3.8-67.89,1.15-30.87,7.05-62.15,21.56-89.64,11.7-23.16,29.16-43.53,51-57.63C680.33,551.74,709.1,542.9,738.05,538.27Z"/><path class="cls-35" d="M1857.32,1002.82h-36.85V966h43V953.76h-58.18v114.3h58.55V1056h-43.41v-41h36.85Zm-89.2,30.86q0,12.55-4.92,18.25t-14.77,5.69q-10.22,0-15.81-7.92t-5.59-22.85v-32q0-14.75,5.44-22.64t15.44-7.89q10.14,0,15.21,5.77t5.07,18h14.55l.15-.47q.3-17.43-9-26.5t-25.95-9.06q-16.48,0-26.26,11.38t-9.77,31.64v31.72q0,20.33,9.92,31.6t26.63,11.26q16.18,0,25.43-9.34t9-26.22l-.14-.47Zm-81.66-79.92h-15.14v114.3h15.14Zm-99.42,0h-16.11l33.12,114.3h14.77L1652,953.76h-16.19l-22.6,88.16-1.56,6.91h-.45l-1.57-7ZM1505.3,966h16.86q8.88,0,13.24,5.42t4.36,15.23q0,9.58-4.47,14.8t-13.88,5.22H1505.3Zm18.72,52.84a13.83,13.83,0,0,1,11.68,5.57q4.21,5.58,4.21,15.16v9.65a73.68,73.68,0,0,0,.79,11q.78,5.31,3.31,7.89h15.59v-1.8a14.07,14.07,0,0,1-3.43-7.07,46.75,46.75,0,0,1-1-9.81v-10q0-10.2-3.69-17.12t-12-9.89a26.73,26.73,0,0,0,11.45-10.4,30.09,30.09,0,0,0,4-15.66q0-15.71-8.54-24.1t-24.2-8.4h-32v114.22h15.14v-49.22Zm-61.67-16h-36.84V966h43V953.76h-58.17v114.3h58.54V1056h-43.4v-41h36.84Zm-94.94,49.9q-4.77,5-13.2,5a19.92,19.92,0,0,1-14.51-5.73q-5.85-5.73-5.85-17.35h-14.62l-.15.47q-.37,16.73,10.22,25.67a37.36,37.36,0,0,0,24.91,9q14.83,0,24-8.28t9.13-22.25q0-13.12-7.75-21.36t-22.6-13.35q-11.12-4.32-15.81-9.18a17,17,0,0,1-4.7-12.33,20.14,20.14,0,0,1,4.43-13.34q4.44-5.34,12.5-5.34a16.38,16.38,0,0,1,13.35,6.2q5.07,6.19,5.07,16.25h14.54l.15-.47q.3-14.68-8.8-24.42t-24.16-9.73q-14.18,0-23.23,8.75t-9.07,22.26q0,13.18,8.21,21.12t23.49,13q10.74,4.17,15,9.23t4.25,12.91q0,8.4-4.77,13.39m-110.6-42h-35.2v11.62h20V1049a16.6,16.6,0,0,1-6.68,6.12c-3.06,1.68-7.14,2.51-12.27,2.51q-10.44,0-16.51-7.65t-6.08-22.26V993.64q0-14.29,5.85-21.79t16.07-7.49q9.48,0,14.44,5.68t4.95,16h14.25l.15-.47q.3-15.54-8.65-24.49t-25.43-8.95q-16.71,0-26.78,10.91t-10.07,30.78v33.91q0,20.18,10.4,31.09t27.41,10.91q13.35,0,21.82-5t12.34-11.54Zm-96.13-57h-15.22v84l-.44.08L1103,953.76h-15.14v114.3H1103V983.9l.45-.15,42.06,84.31h15.22Zm-101.13,0h-15.14v114.3h15.14Zm-43.33,0H1001v84l-.45.08L958.5,953.76H943.35v114.3H958.5V983.9l.44-.15,42.07,84.31h15.21Zm-131.33,26.3h.44l12.53,46.47H872.21Zm24.16,88h15.74L892.5,953.76H877.8l-32.59,114.3H861l7.83-28.88h32.44Zm-83.75-65.24H788.46V966h43V953.76H773.31v114.3h58.55V1056h-43.4v-41H825.3ZM708.73,953.76H693.59v114.3h59.07V1056H708.73Zm-52.35,79.92q0,12.55-4.92,18.25t-14.77,5.69q-10.22,0-15.81-7.92t-5.6-22.85v-32q0-14.75,5.45-22.64t15.44-7.89q10.14,0,15.21,5.77t5.07,18H671l.15-.47q.29-17.43-9-26.5t-26-9.06q-16.49,0-26.26,11.38t-9.77,31.64v31.72q0,20.33,9.92,31.6t26.63,11.26q16.18,0,25.43-9.34t9-26.22l-.15-.47Z"/></svg>